<svg width="57" height="57" viewBox="0 0 57 57" fill="none" xmlns="http://www.w3.org/2000/svg">
<path d="M0.660645 0.045105H56.9171V34.544C56.9171 46.5603 47.1759 56.3015 35.1595 56.3015H0.660645V0.045105Z" fill="#EFDBBC"/>
<path d="M21.7068 34.2437C21.5557 34.2437 21.4045 34.2658 21.2604 34.3126C20.4409 34.5788 19.579 34.7496 18.6716 34.7496C17.7642 34.7496 16.9023 34.5788 16.0822 34.3126C15.938 34.2658 15.7875 34.2437 15.6364 34.2437C11.7122 34.2437 8.53343 37.4357 8.5543 41.365C8.56315 43.0255 9.92836 44.361 11.5895 44.361H25.7537C27.4148 44.361 28.78 43.0255 28.7889 41.365C28.8098 37.4357 25.631 34.2437 21.7068 34.2437ZM18.6716 32.2203C22.0242 32.2203 24.742 29.5025 24.742 26.1499C24.742 22.7973 22.0242 20.0795 18.6716 20.0795C15.319 20.0795 12.6012 22.7973 12.6012 26.1499C12.6012 29.5025 15.319 32.2203 18.6716 32.2203ZM45.9883 11.9857H21.7068C20.033 11.9857 18.6716 13.3926 18.6716 15.1214V18.056C20.1525 18.056 21.5234 18.4848 22.7185 19.1816V16.0326H44.9765V34.2437H40.9296V30.1968H32.8358V34.2437H28.0149C29.2227 35.2991 30.1092 36.6927 30.5246 38.2906H45.9883C47.6621 38.2906 49.0235 36.8837 49.0235 35.1549V15.1214C49.0235 13.3926 47.6621 11.9857 45.9883 11.9857Z" fill="#834E00"/>
</svg>
