<svg width="66" height="66" viewBox="0 0 66 66" fill="none" xmlns="http://www.w3.org/2000/svg">
<path d="M0.147949 0.727386H65.2113V40.6281C65.2113 54.525 53.9456 65.7907 40.0487 65.7907H0.147949V0.727386Z" fill="#BDE7DF"/>
<path d="M32.6795 35.955C32.0518 36.7896 31.5235 37.6943 31.105 38.651H25.9395C25.582 38.651 25.2391 38.7931 24.9863 39.0459C24.7335 39.2987 24.5915 39.6415 24.5915 39.999V42.5512C25.0229 44.4007 26.7609 45.5079 30.0949 45.7864C30.2172 46.7336 30.4382 47.6521 30.7474 48.5274C25.6933 48.2937 22.6235 46.4766 21.9225 42.9592L21.8955 42.695V39.999C21.8955 38.9265 22.3216 37.8979 23.08 37.1395C23.8384 36.3811 24.867 35.955 25.9395 35.955H32.6795ZM52.6514 34.1793C51.9762 33.5503 51.2385 32.9921 50.4497 32.5132C50.5432 32.2921 50.6115 32.0566 50.6528 31.8086V29.2151C50.6528 28.8575 50.5108 28.5147 50.258 28.2619C50.0052 28.0091 49.6623 27.8671 49.3048 27.8671H39.8688C39.8688 26.9217 39.7071 26.0122 39.4087 25.1693L49.3048 25.1711C50.3773 25.1711 51.4059 25.5971 52.1643 26.3555C52.9227 27.1139 53.3488 28.1425 53.3488 29.2151V31.9146L53.3344 32.1088C53.2358 32.835 53.0043 33.5369 52.6514 34.1793ZM24.153 25.1693L14.2569 25.1711C13.1843 25.1711 12.1557 25.5971 11.3973 26.3555C10.639 27.1139 10.2129 28.1425 10.2129 29.2151V31.9111L10.2381 32.1753C10.9929 35.9515 14.4798 37.7686 20.2186 37.7686L20.5421 37.765C21.055 36.5287 21.9761 35.5055 23.1519 34.8659C22.3107 35.0025 21.3366 35.0726 20.2186 35.0726C15.6965 35.0726 13.4121 33.9259 12.9089 31.7673V29.2151C12.9089 28.8575 13.0509 28.5147 13.3037 28.2619C13.5565 28.0091 13.8994 27.8671 14.2569 27.8671H23.6929L23.7054 27.398C23.7504 26.6197 23.9049 25.872 24.1548 25.1693H24.153ZM38.0715 27.8671C38.0715 26.1987 37.4087 24.5986 36.229 23.4189C35.0493 22.2392 33.4492 21.5764 31.7808 21.5764C30.1125 21.5764 28.5124 22.2392 27.3327 23.4189C26.153 24.5986 25.4902 26.1987 25.4902 27.8671C25.4902 29.5354 26.153 31.1355 27.3327 32.3152C28.5124 33.495 30.1125 34.1577 31.7808 34.1577C33.4492 34.1577 35.0493 33.495 36.229 32.3152C37.4087 31.1355 38.0715 29.5354 38.0715 27.8671ZM28.1862 27.8671C28.1862 26.9137 28.5649 25.9994 29.239 25.3253C29.9132 24.6511 30.8275 24.2724 31.7808 24.2724C32.7342 24.2724 33.6485 24.6511 34.3227 25.3253C34.9968 25.9994 35.3755 26.9137 35.3755 27.8671C35.3755 28.8204 34.9968 29.7347 34.3227 30.4089C33.6485 31.083 32.7342 31.4617 31.7808 31.4617C30.8275 31.4617 29.9132 31.083 29.239 30.4089C28.5649 29.7347 28.1862 28.8204 28.1862 27.8671ZM49.7541 17.0831C49.7541 15.4147 49.0914 13.8147 47.9117 12.6349C46.7319 11.4552 45.1319 10.7924 43.4635 10.7924C41.7951 10.7924 40.195 11.4552 39.0153 12.6349C37.8356 13.8147 37.1728 15.4147 37.1728 17.0831C37.1728 18.7515 37.8356 20.3515 39.0153 21.5313C40.195 22.711 41.7951 23.3737 43.4635 23.3737C45.1319 23.3737 46.7319 22.711 47.9117 21.5313C49.0914 20.3515 49.7541 18.7515 49.7541 17.0831ZM39.8688 17.0831C39.8688 16.1297 40.2475 15.2154 40.9217 14.5413C41.5958 13.8672 42.5101 13.4884 43.4635 13.4884C44.4168 13.4884 45.3312 13.8672 46.0053 14.5413C46.6794 15.2154 47.0581 16.1297 47.0581 17.0831C47.0581 18.0365 46.6794 18.9508 46.0053 19.6249C45.3312 20.299 44.4168 20.6777 43.4635 20.6777C42.5101 20.6777 41.5958 20.299 40.9217 19.6249C40.2475 18.9508 39.8688 18.0365 39.8688 17.0831ZM26.3889 17.0831C26.3889 15.4147 25.7261 13.8147 24.5464 12.6349C23.3666 11.4552 21.7666 10.7924 20.0982 10.7924C18.4298 10.7924 16.8298 11.4552 15.65 12.6349C14.4703 13.8147 13.8075 15.4147 13.8075 17.0831C13.8075 18.7515 14.4703 20.3515 15.65 21.5313C16.8298 22.711 18.4298 23.3737 20.0982 23.3737C21.7666 23.3737 23.3666 22.711 24.5464 21.5313C25.7261 20.3515 26.3889 18.7515 26.3889 17.0831ZM16.5035 17.0831C16.5035 16.1297 16.8823 15.2154 17.5564 14.5413C18.2305 13.8672 19.1448 13.4884 20.0982 13.4884C21.0516 13.4884 21.9659 13.8672 22.64 14.5413C23.3141 15.2154 23.6929 16.1297 23.6929 17.0831C23.6929 18.0365 23.3141 18.9508 22.64 19.6249C21.9659 20.299 21.0516 20.6777 20.0982 20.6777C19.1448 20.6777 18.2305 20.299 17.5564 19.6249C16.8823 18.9508 16.5035 18.0365 16.5035 17.0831ZM43.4635 55.7257C46.5619 55.7257 49.5334 54.4948 51.7244 52.3039C53.9153 50.113 55.1461 47.1415 55.1461 44.043C55.1461 40.9446 53.9153 37.9731 51.7244 35.7822C49.5334 33.5912 46.5619 32.3604 43.4635 32.3604C40.3651 32.3604 37.3935 33.5912 35.2026 35.7822C33.0117 37.9731 31.7808 40.9446 31.7808 44.043C31.7808 47.1415 33.0117 50.113 35.2026 52.3039C37.3935 54.4948 40.3651 55.7257 43.4635 55.7257ZM43.4635 35.955C43.7018 35.955 43.9304 36.0497 44.0989 36.2183C44.2675 36.3868 44.3621 36.6154 44.3621 36.8537V43.1444H50.6528C50.8911 43.1444 51.1197 43.239 51.2883 43.4076C51.4568 43.5761 51.5515 43.8047 51.5515 44.043C51.5515 44.2814 51.4568 44.5099 51.2883 44.6785C51.1197 44.847 50.8911 44.9417 50.6528 44.9417H44.3621V51.2323C44.3621 51.4707 44.2675 51.6993 44.0989 51.8678C43.9304 52.0363 43.7018 52.131 43.4635 52.131C43.2251 52.131 42.9966 52.0363 42.828 51.8678C42.6595 51.6993 42.5648 51.4707 42.5648 51.2323V44.9417H36.2742C36.0358 44.9417 35.8072 44.847 35.6387 44.6785C35.4702 44.5099 35.3755 44.2814 35.3755 44.043C35.3755 43.8047 35.4702 43.5761 35.6387 43.4076C35.8072 43.239 36.0358 43.1444 36.2742 43.1444H42.5648V36.8537C42.5648 36.6154 42.6595 36.3868 42.828 36.2183C42.9966 36.0497 43.2251 35.955 43.4635 35.955Z" fill="#135246"/>
</svg>
