<svg width="66" height="66" viewBox="0 0 66 66" fill="none" xmlns="http://www.w3.org/2000/svg">
<path d="M0 0H65.0633V39.9007C65.0633 53.7976 53.7976 65.0633 39.9007 65.0633H0V0Z" fill="#979DA0"/>
<path d="M32.5316 35.2277C31.9039 36.0622 31.3755 36.9669 30.9571 37.9237H25.7916C25.4341 37.9237 25.0912 38.0657 24.8384 38.3185C24.5856 38.5713 24.4436 38.9141 24.4436 39.2717V41.8239C24.8749 43.6733 26.613 44.7805 29.947 45.0591C30.0692 46.0062 30.2903 46.9247 30.5994 47.8C25.5453 47.5663 22.4755 45.7492 21.7745 42.2319L21.7476 41.9676V39.2717C21.7476 38.1991 22.1736 37.1705 22.932 36.4121C23.6904 35.6537 24.719 35.2277 25.7916 35.2277H32.5316ZM52.5035 33.4519C51.8283 32.823 51.0905 32.2647 50.3018 31.7858C50.3952 31.5647 50.4635 31.3293 50.5049 31.0812V28.4877C50.5049 28.1302 50.3628 27.7873 50.11 27.5345C49.8572 27.2817 49.5144 27.1397 49.1569 27.1397H39.7209C39.7209 26.1943 39.5591 25.2848 39.2608 24.4419L49.1569 24.4437C50.2294 24.4437 51.258 24.8697 52.0164 25.6281C52.7748 26.3865 53.2008 27.4151 53.2008 28.4877V31.1873L53.1865 31.3814C53.0879 32.1076 52.8564 32.8095 52.5035 33.4519ZM24.005 24.4419L14.1089 24.4437C13.0364 24.4437 12.0078 24.8697 11.2494 25.6281C10.491 26.3865 10.0649 27.4151 10.0649 28.4877V31.1837L10.0901 31.4479C10.845 35.2241 14.3318 37.0412 20.0707 37.0412L20.3942 37.0376C20.9071 35.8013 21.8282 34.7781 23.0039 34.1385C22.1628 34.2751 21.1886 34.3452 20.0707 34.3452C15.5486 34.3452 13.2642 33.1985 12.7609 31.0399V28.4877C12.7609 28.1302 12.903 27.7873 13.1558 27.5345C13.4086 27.2817 13.7514 27.1397 14.1089 27.1397H23.5449L23.5575 26.6706C23.6024 25.8923 23.757 25.1446 24.0068 24.4419H24.005ZM37.9235 27.1397C37.9235 25.4713 37.2608 23.8712 36.0811 22.6915C34.9013 21.5118 33.3013 20.849 31.6329 20.849C29.9645 20.849 28.3645 21.5118 27.1847 22.6915C26.005 23.8712 25.3422 25.4713 25.3422 27.1397C25.3422 28.8081 26.005 30.4081 27.1847 31.5878C28.3645 32.7676 29.9645 33.4303 31.6329 33.4303C33.3013 33.4303 34.9013 32.7676 36.0811 31.5878C37.2608 30.4081 37.9235 28.8081 37.9235 27.1397ZM28.0382 27.1397C28.0382 26.1863 28.417 25.272 29.0911 24.5979C29.7652 23.9237 30.6795 23.545 31.6329 23.545C32.5863 23.545 33.5006 23.9237 34.1747 24.5979C34.8488 25.272 35.2276 26.1863 35.2276 27.1397C35.2276 28.093 34.8488 29.0074 34.1747 29.6815C33.5006 30.3556 32.5863 30.7343 31.6329 30.7343C30.6795 30.7343 29.7652 30.3556 29.0911 29.6815C28.417 29.0074 28.0382 28.093 28.0382 27.1397ZM49.6062 16.3557C49.6062 14.6873 48.9434 13.0873 47.7637 11.9075C46.584 10.7278 44.9839 10.065 43.3155 10.065C41.6472 10.065 40.0471 10.7278 38.8674 11.9075C37.6876 13.0873 37.0249 14.6873 37.0249 16.3557C37.0249 18.0241 37.6876 19.6241 38.8674 20.8039C40.0471 21.9836 41.6472 22.6464 43.3155 22.6464C44.9839 22.6464 46.584 21.9836 47.7637 20.8039C48.9434 19.6241 49.6062 18.0241 49.6062 16.3557ZM39.7209 16.3557C39.7209 15.4023 40.0996 14.488 40.7737 13.8139C41.4479 13.1398 42.3622 12.761 43.3155 12.761C44.2689 12.761 45.1832 13.1398 45.8573 13.8139C46.5315 14.488 46.9102 15.4023 46.9102 16.3557C46.9102 17.3091 46.5315 18.2234 45.8573 18.8975C45.1832 19.5716 44.2689 19.9504 43.3155 19.9504C42.3622 19.9504 41.4479 19.5716 40.7737 18.8975C40.0996 18.2234 39.7209 17.3091 39.7209 16.3557ZM26.2409 16.3557C26.2409 14.6873 25.5781 13.0873 24.3984 11.9075C23.2187 10.7278 21.6186 10.065 19.9503 10.065C18.2819 10.065 16.6818 10.7278 15.5021 11.9075C14.3224 13.0873 13.6596 14.6873 13.6596 16.3557C13.6596 18.0241 14.3224 19.6241 15.5021 20.8039C16.6818 21.9836 18.2819 22.6464 19.9503 22.6464C21.6186 22.6464 23.2187 21.9836 24.3984 20.8039C25.5781 19.6241 26.2409 18.0241 26.2409 16.3557ZM16.3556 16.3557C16.3556 15.4023 16.7343 14.488 17.4084 13.8139C18.0826 13.1398 18.9969 12.761 19.9503 12.761C20.9036 12.761 21.8179 13.1398 22.4921 13.8139C23.1662 14.488 23.5449 15.4023 23.5449 16.3557C23.5449 17.3091 23.1662 18.2234 22.4921 18.8975C21.8179 19.5716 20.9036 19.9504 19.9503 19.9504C18.9969 19.9504 18.0826 19.5716 17.4084 18.8975C16.7343 18.2234 16.3556 17.3091 16.3556 16.3557ZM43.3155 54.9983C46.414 54.9983 49.3855 53.7674 51.5764 51.5765C53.7673 49.3856 54.9982 46.4141 54.9982 43.3156C54.9982 40.2172 53.7673 37.2457 51.5764 35.0548C49.3855 32.8638 46.414 31.633 43.3155 31.633C40.2171 31.633 37.2456 32.8638 35.0547 35.0548C32.8637 37.2457 31.6329 40.2172 31.6329 43.3156C31.6329 46.4141 32.8637 49.3856 35.0547 51.5765C37.2456 53.7674 40.2171 54.9983 43.3155 54.9983ZM43.3155 35.2277C43.5539 35.2277 43.7825 35.3223 43.951 35.4909C44.1195 35.6594 44.2142 35.888 44.2142 36.1263V42.417H50.5049C50.7432 42.417 50.9718 42.5117 51.1403 42.6802C51.3088 42.8487 51.4035 43.0773 51.4035 43.3156C51.4035 43.554 51.3088 43.7826 51.1403 43.9511C50.9718 44.1196 50.7432 44.2143 50.5049 44.2143H44.2142V50.505C44.2142 50.7433 44.1195 50.9719 43.951 51.1404C43.7825 51.3089 43.5539 51.4036 43.3155 51.4036C43.0772 51.4036 42.8486 51.3089 42.6801 51.1404C42.5116 50.9719 42.4169 50.7433 42.4169 50.505V44.2143H36.1262C35.8879 44.2143 35.6593 44.1196 35.4908 43.9511C35.3222 43.7826 35.2276 43.554 35.2276 43.3156C35.2276 43.0773 35.3222 42.8487 35.4908 42.6802C35.6593 42.5117 35.8879 42.417 36.1262 42.417H42.4169V36.1263C42.4169 35.888 42.5116 35.6594 42.6801 35.4909C42.8486 35.3223 43.0772 35.2277 43.3155 35.2277Z" fill="#353738"/>
</svg>
