<svg width="57" height="57" viewBox="0 0 57 57" fill="none" xmlns="http://www.w3.org/2000/svg">
<path d="M0 0H56.2564V34.4988C56.2564 46.5152 46.5152 56.2564 34.4988 56.2564H0V0Z" fill="#D8C9B8"/>
<path d="M28.1282 37.1939V44.4464M25.4085 11.8101H14.5298C13.8084 11.8101 13.1167 12.0966 12.6066 12.6066C12.0966 13.1167 11.8101 13.8084 11.8101 14.5298V34.4742C11.8101 35.1955 12.0966 35.8873 12.6066 36.3973C13.1167 36.9074 13.8084 37.1939 14.5298 37.1939H41.7267C42.448 37.1939 43.1398 36.9074 43.6499 36.3973C44.1599 35.8873 44.4464 35.1955 44.4464 34.4742V25.4085L25.4085 11.8101Z" stroke="#4C4640" strokeWidth="1.88566" strokeLinecap="round" strokeLinejoin="round"/>
<path d="M19.063 44.4464H37.1943M35.3812 11.8101L31.7549 15.4363L35.3812 19.0626V11.8101ZM40.8206 11.8101L44.4469 15.4363L40.8206 19.0626V11.8101Z" stroke="#4C4640" strokeWidth="1.88566" strokeLinecap="round" strokeLinejoin="round"/>
</svg>
