<svg width="57" height="57" viewBox="0 0 57 57" fill="none" xmlns="http://www.w3.org/2000/svg">
<path d="M0.404297 0H56.6607V34.4988C56.6607 46.5152 46.9195 56.2564 34.9031 56.2564H0.404297V0Z" fill="#FF7600"/>
<path d="M28.5325 37.1939V44.4464M25.8128 11.8101H14.9341C14.2127 11.8101 13.521 12.0966 13.0109 12.6066C12.5009 13.1167 12.2144 13.8084 12.2144 14.5297V34.4742C12.2144 35.1955 12.5009 35.8873 13.0109 36.3973C13.521 36.9074 14.2127 37.1939 14.9341 37.1939H42.131C42.8523 37.1939 43.5441 36.9074 44.0542 36.3973C44.5642 35.8873 44.8507 35.1955 44.8507 34.4742V25.4085L25.8128 11.8101Z" stroke="#592900" stroke-width="1.88566" stroke-linecap="round" stroke-linejoin="round"/>
<path d="M19.4673 44.4464H37.5986M35.7855 11.81L32.1592 15.4363L35.7855 19.0626V11.81ZM41.2249 11.81L44.8511 15.4363L41.2249 19.0626V11.81Z" stroke="#592900" stroke-width="1.88566" stroke-linecap="round" stroke-linejoin="round"/>
</svg>
